<svg width="29" height="29" viewBox="0 0 29 29" fill="none" xmlns="http://www.w3.org/2000/svg">
<g id="streamline:shipping-truck" clip-path="url(#clip0_26_85)">
<g id="Group">
<path id="Vector (Stroke)" fill-rule="evenodd" clip-rule="evenodd" d="M3.83622 8.7449C3.57592 8.7449 3.32628 8.8483 3.14223 9.03236C2.95817 9.21642 2.85476 9.46606 2.85476 9.72636V22.4853H3.83622C4.37827 22.4853 4.81768 22.9247 4.81768 23.4668C4.81768 24.0088 4.37827 24.4482 3.83622 24.4482H1.8733C1.33126 24.4482 0.891846 24.0088 0.891846 23.4668V9.72636C0.891846 8.94546 1.20206 8.19655 1.75423 7.64437C2.30641 7.09219 3.05532 6.78198 3.83622 6.78198H15.6137C16.3946 6.78198 17.1435 7.09219 17.6957 7.64437C18.2479 8.19655 18.5581 8.94546 18.5581 9.72636V10.7078H23.4654C24.7669 10.7078 26.0151 11.2248 26.9354 12.1451C27.8557 13.0654 28.3727 14.3136 28.3727 15.6151V23.4668C28.3727 24.0088 27.9333 24.4482 27.3912 24.4482H24.4468C23.9048 24.4482 23.4654 24.0088 23.4654 23.4668C23.4654 22.9247 23.9048 22.4853 24.4468 22.4853H26.4098V15.6151C26.4098 14.8342 26.0996 14.0853 25.5474 13.5331C24.9952 12.9809 24.2463 12.6707 23.4654 12.6707H18.5581V23.4668C18.5581 24.0088 18.1187 24.4482 17.5766 24.4482C17.3979 24.4482 17.2303 24.4004 17.0859 24.3169C16.9415 24.4004 16.7739 24.4482 16.5952 24.4482H11.6879C11.1458 24.4482 10.7064 24.0088 10.7064 23.4668C10.7064 22.9247 11.1458 22.4853 11.6879 22.4853H16.5952V9.72636C16.5952 9.46606 16.4918 9.21642 16.3077 9.03236C16.1237 8.8483 15.874 8.7449 15.6137 8.7449H3.83622Z" fill="#F8BF0E"/>
<path id="Vector (Stroke)_2" fill-rule="evenodd" clip-rule="evenodd" d="M7.76205 21.5038C7.1113 21.5038 6.48721 21.7623 6.02706 22.2225C5.56691 22.6826 5.30841 23.3067 5.30841 23.9575C5.30841 24.6082 5.56691 25.2323 6.02706 25.6924C6.48721 26.1526 7.1113 26.4111 7.76205 26.4111C8.4128 26.4111 9.03689 26.1526 9.49704 25.6924C9.95719 25.2323 10.2157 24.6082 10.2157 23.9575C10.2157 23.3067 9.95719 22.6826 9.49704 22.2225C9.03689 21.7623 8.4128 21.5038 7.76205 21.5038ZM4.63907 20.8345C5.46734 20.0062 6.59071 19.5409 7.76205 19.5409C8.9334 19.5409 10.0568 20.0062 10.885 20.8345C11.7133 21.6627 12.1786 22.7861 12.1786 23.9575C12.1786 25.1288 11.7133 26.2522 10.885 27.0804C10.0568 27.9087 8.9334 28.374 7.76205 28.374C6.59071 28.374 5.46734 27.9087 4.63907 27.0804C3.8108 26.2522 3.34549 25.1288 3.34549 23.9575C3.34549 22.7861 3.8108 21.6627 4.63907 20.8345ZM21.0117 21.5038C20.361 21.5038 19.7369 21.7623 19.2767 22.2225C18.8166 22.6826 18.5581 23.3067 18.5581 23.9575C18.5581 24.6082 18.8166 25.2323 19.2767 25.6924C19.7369 26.1526 20.361 26.4111 21.0117 26.4111C21.6625 26.4111 22.2866 26.1526 22.7467 25.6924C23.2069 25.2323 23.4654 24.6082 23.4654 23.9575C23.4654 23.3067 23.2069 22.6826 22.7467 22.2225C22.2866 21.7623 21.6625 21.5038 21.0117 21.5038ZM17.8888 20.8345C18.717 20.0062 19.8404 19.5409 21.0117 19.5409C22.1831 19.5409 23.3065 20.0062 24.1347 20.8345C24.963 21.6627 25.4283 22.7861 25.4283 23.9575C25.4283 25.1288 24.963 26.2522 24.1347 27.0804C23.3065 27.9087 22.1831 28.374 21.0117 28.374C19.8404 28.374 18.717 27.9087 17.8888 27.0804C17.0605 26.2522 16.5952 25.1288 16.5952 23.9575C16.5952 22.7861 17.0605 21.6627 17.8888 20.8345Z" fill="#F8BF0E"/>
</g>
</g>
<defs>
<clipPath id="clip0_26_85">
<rect width="27.4808" height="27.4808" fill="white" transform="translate(0.891846 0.893188)"/>
</clipPath>
</defs>
</svg>
