<svg width="29" height="29" viewBox="0 0 29 29" fill="none" xmlns="http://www.w3.org/2000/svg">
<g id="solar:card-linear">
<g id="Group">
<path id="Vector (Stroke)" fill-rule="evenodd" clip-rule="evenodd" d="M7.17031 4.99523C6.01936 5.15003 5.44385 5.42864 5.0416 5.83124C4.63901 6.23349 4.35956 6.80982 4.20477 7.96077C4.04464 9.1513 4.04172 10.7345 4.04172 13.03C4.04172 15.3255 4.04464 16.9088 4.20477 18.0993C4.35956 19.2502 4.63818 19.8258 5.04077 20.228C5.44302 20.6306 6.01936 20.91 7.17031 21.0648C8.36084 21.225 9.94408 21.2279 12.2396 21.2279H17.0268C19.3223 21.2279 20.9055 21.225 22.096 21.0648C23.247 20.91 23.8225 20.6314 24.2247 20.2288C24.6273 19.8266 24.9068 19.2502 25.0616 18.0993C25.2217 16.9088 25.2246 15.3255 25.2246 13.03C25.2246 10.7345 25.2217 9.1513 25.0616 7.96077C24.9068 6.80982 24.6282 6.23432 24.2256 5.83207C23.8233 5.42947 23.247 5.15003 22.096 4.99523C20.9055 4.83511 19.3223 4.83218 17.0268 4.83218H12.2396C9.94408 4.83218 8.36084 4.83511 7.17031 4.99523ZM12.1405 2.0791H17.1259C19.2982 2.07906 21.0675 2.07902 22.463 2.26672C23.9193 2.46258 25.1731 2.88529 26.1723 3.88535C27.1717 4.88441 27.5943 6.13793 27.7901 7.5938C27.9778 8.98934 27.9777 10.7587 27.9777 12.931V13.1291C27.9777 15.3014 27.9778 17.0707 27.7901 18.4663C27.5942 19.9223 27.1716 21.176 26.1719 22.1751C25.1727 23.1749 23.9191 23.5975 22.463 23.7934C21.0675 23.981 19.2981 23.981 17.1258 23.981H12.1405C9.9682 23.981 8.19887 23.981 6.80333 23.7934C5.34746 23.5975 4.09395 23.175 3.09488 22.1756C2.09483 21.1764 1.67212 19.9225 1.47625 18.4663C1.28856 17.0707 1.28859 15.3014 1.28864 13.1291V12.9309C1.28859 10.7587 1.28856 8.98933 1.47625 7.5938C1.67209 6.13772 2.09471 4.88406 3.09447 3.88493C4.0936 2.88518 5.34726 2.46256 6.80333 2.26672C8.19887 2.07902 9.96819 2.07906 12.1405 2.0791Z" fill="#F8BF0E"/>
<path id="Vector (Stroke)_2" fill-rule="evenodd" clip-rule="evenodd" d="M1.28864 10.6364C1.28864 9.87619 1.90493 9.25989 2.66518 9.25989H26.6012C27.3614 9.25989 27.9777 9.87619 27.9777 10.6364C27.9777 11.3967 27.3614 12.013 26.6012 12.013H2.66518C1.90493 12.013 1.28864 11.3967 1.28864 10.6364ZM6.07583 17.8172C6.07583 17.057 6.69213 16.4407 7.45237 16.4407H12.2396C12.9998 16.4407 13.6161 17.057 13.6161 17.8172C13.6161 18.5775 12.9998 19.1938 12.2396 19.1938H7.45237C6.69213 19.1938 6.07583 18.5775 6.07583 17.8172ZM13.855 17.8172C13.855 17.057 14.4713 16.4407 15.2316 16.4407H17.0268C17.787 16.4407 18.4033 17.057 18.4033 17.8172C18.4033 18.5775 17.787 19.1938 17.0268 19.1938H15.2316C14.4713 19.1938 13.855 18.5775 13.855 17.8172Z" fill="#F8BF0E"/>
</g>
</g>
</svg>
