<svg width="28" height="29" viewBox="0 0 28 29" fill="none" xmlns="http://www.w3.org/2000/svg">
<g id="tabler:replace">
<path id="Vector" d="M24.5 13.1381V9.63814C24.5 9.0193 24.2542 8.42581 23.8166 7.98823C23.379 7.55064 22.7855 7.30481 22.1667 7.30481H15.1667M15.1667 7.30481L18.6667 10.8048M15.1667 7.30481L18.6667 3.80481M3.5 15.4715V18.9715C3.5 19.5903 3.74583 20.1838 4.18342 20.6214C4.621 21.059 5.21449 21.3048 5.83333 21.3048H12.8333M12.8333 21.3048L9.33333 17.8048M12.8333 21.3048L9.33333 24.8048M3.5 4.97148C3.5 4.66206 3.62292 4.36531 3.84171 4.14652C4.0605 3.92773 4.35725 3.80481 4.66667 3.80481H9.33333C9.64275 3.80481 9.9395 3.92773 10.1583 4.14652C10.3771 4.36531 10.5 4.66206 10.5 4.97148V9.63814C10.5 9.94756 10.3771 10.2443 10.1583 10.4631C9.9395 10.6819 9.64275 10.8048 9.33333 10.8048H4.66667C4.35725 10.8048 4.0605 10.6819 3.84171 10.4631C3.62292 10.2443 3.5 9.94756 3.5 9.63814V4.97148ZM17.5 18.9715C17.5 18.6621 17.6229 18.3653 17.8417 18.1465C18.0605 17.9277 18.3572 17.8048 18.6667 17.8048H23.3333C23.6428 17.8048 23.9395 17.9277 24.1583 18.1465C24.3771 18.3653 24.5 18.6621 24.5 18.9715V23.6381C24.5 23.9476 24.3771 24.2443 24.1583 24.4631C23.9395 24.6819 23.6428 24.8048 23.3333 24.8048H18.6667C18.3572 24.8048 18.0605 24.6819 17.8417 24.4631C17.6229 24.2443 17.5 23.9476 17.5 23.6381V18.9715Z" stroke="#F8BF0E" stroke-width="2" stroke-linecap="round" stroke-linejoin="round"/>
</g>
</svg>
