<svg width="29" height="29" viewBox="0 0 29 29" fill="none" xmlns="http://www.w3.org/2000/svg">
<g id="uil:calender">
<path id="Vector" d="M23.057 4.71688H20.7237V3.55021C20.7237 3.24079 20.6007 2.94405 20.382 2.72525C20.1632 2.50646 19.8664 2.38354 19.557 2.38354C19.2476 2.38354 18.9508 2.50646 18.732 2.72525C18.5132 2.94405 18.3903 3.24079 18.3903 3.55021V4.71688H11.3903V3.55021C11.3903 3.24079 11.2674 2.94405 11.0486 2.72525C10.8298 2.50646 10.5331 2.38354 10.2237 2.38354C9.91424 2.38354 9.6175 2.50646 9.39871 2.72525C9.17991 2.94405 9.057 3.24079 9.057 3.55021V4.71688H6.72366C5.79541 4.71688 4.90517 5.08563 4.24879 5.742C3.59241 6.39838 3.22366 7.28862 3.22366 8.21688V22.2169C3.22366 23.1451 3.59241 24.0354 4.24879 24.6918C4.90517 25.3481 5.79541 25.7169 6.72366 25.7169H23.057C23.9853 25.7169 24.8755 25.3481 25.5319 24.6918C26.1882 24.0354 26.557 23.1451 26.557 22.2169V8.21688C26.557 7.28862 26.1882 6.39838 25.5319 5.742C24.8755 5.08563 23.9853 4.71688 23.057 4.71688ZM24.2237 22.2169C24.2237 22.5263 24.1007 22.823 23.882 23.0418C23.6632 23.2606 23.3664 23.3835 23.057 23.3835H6.72366C6.41424 23.3835 6.1175 23.2606 5.89871 23.0418C5.67991 22.823 5.557 22.5263 5.557 22.2169V14.0502H24.2237V22.2169ZM24.2237 11.7169H5.557V8.21688C5.557 7.90746 5.67991 7.61071 5.89871 7.39192C6.1175 7.17313 6.41424 7.05021 6.72366 7.05021H9.057V8.21688C9.057 8.5263 9.17991 8.82304 9.39871 9.04184C9.6175 9.26063 9.91424 9.38354 10.2237 9.38354C10.5331 9.38354 10.8298 9.26063 11.0486 9.04184C11.2674 8.82304 11.3903 8.5263 11.3903 8.21688V7.05021H18.3903V8.21688C18.3903 8.5263 18.5132 8.82304 18.732 9.04184C18.9508 9.26063 19.2476 9.38354 19.557 9.38354C19.8664 9.38354 20.1632 9.26063 20.382 9.04184C20.6007 8.82304 20.7237 8.5263 20.7237 8.21688V7.05021H23.057C23.3664 7.05021 23.6632 7.17313 23.882 7.39192C24.1007 7.61071 24.2237 7.90746 24.2237 8.21688V11.7169Z" fill="#F8BF0E"/>
</g>
</svg>
