<svg width="29" height="29" viewBox="0 0 29 29" fill="none" xmlns="http://www.w3.org/2000/svg">
<g id="ci:shield">
<path id="Vector" d="M15.2349 25.0517C17.6919 23.9398 23.4879 20.504 23.4879 12.8413V8.21201C23.4879 6.90768 23.4879 6.25434 23.2335 5.75618C23.0095 5.31702 22.6521 4.96008 22.2127 4.73651C21.7145 4.48218 21.0612 4.48218 19.7545 4.48218H8.55454C7.24787 4.48218 6.59454 4.48218 6.09521 4.73651C5.65613 4.96015 5.29917 5.3171 5.07554 5.75618C4.82121 6.25551 4.82121 6.90884 4.82121 8.21551V12.8413C4.82121 20.504 10.6172 23.9398 13.0742 25.0517C13.3344 25.1707 13.465 25.229 13.7602 25.2792C13.9469 25.3118 14.3645 25.3118 14.55 25.2792C14.844 25.229 14.9735 25.1707 15.2325 25.0528L15.2349 25.0517Z" stroke="#F8BF0E" stroke-width="2" stroke-linecap="round" stroke-linejoin="round"/>
</g>
</svg>
